<?xml version="1.0" encoding="UTF-8"?>
<mxfile host="app.diagrams.net" modified="2024-03-27T09:17:00.000Z" agent="Mozilla/5.0" version="21.6.6" etag="your-etag" type="device">
  <diagram name="Page-1" id="architecture">
    <mxGraphModel dx="1422" dy="798" grid="1" gridSize="10" guides="1" tooltips="1" connect="1" arrows="1" fold="1" page="1" pageScale="1" pageWidth="827" pageHeight="1169" math="0" shadow="0">
      <root>
        <mxCell id="0" />
        <mxCell id="1" parent="0" />
        
        <!-- Пользователь -->
        <mxCell id="user" value="Пользователь" style="ellipse;whiteSpace=wrap;html=1;fillColor=#dae8fc;strokeColor=#6c8ebf;" vertex="1" parent="1">
          <mxGeometry x="40" y="40" width="120" height="60" as="geometry" />
        </mxCell>
        
        <!-- API -->
        <mxCell id="api" value="API Application&#xa;(FastAPI)" style="rounded=0;whiteSpace=wrap;html=1;fillColor=#d5e8d4;strokeColor=#82b366;" vertex="1" parent="1">
          <mxGeometry x="240" y="40" width="120" height="60" as="geometry" />
        </mxCell>
        
        <!-- MongoDB Router -->
        <mxCell id="mongos" value="MongoDB Router&#xa;(mongos)" style="rounded=0;whiteSpace=wrap;html=1;fillColor=#ffe6cc;strokeColor=#d79b00;" vertex="1" parent="1">
          <mxGeometry x="440" y="40" width="120" height="60" as="geometry" />
        </mxCell>
        
        <!-- Config Server -->
        <mxCell id="configsvr" value="Config Server" style="rounded=0;whiteSpace=wrap;html=1;fillColor=#e1d5e7;strokeColor=#9673a6;" vertex="1" parent="1">
          <mxGeometry x="640" y="40" width="120" height="60" as="geometry" />
        </mxCell>
        
        <!-- Shard 1 -->
        <mxCell id="shard1" value="Shard 1" style="rounded=0;whiteSpace=wrap;html=1;fillColor=#f8cecc;strokeColor=#b85450;" vertex="1" parent="1">
          <mxGeometry x="240" y="160" width="120" height="60" as="geometry" />
        </mxCell>
        
        <!-- Shard 2 -->
        <mxCell id="shard2" value="Shard 2" style="rounded=0;whiteSpace=wrap;html=1;fillColor=#f8cecc;strokeColor=#b85450;" vertex="1" parent="1">
          <mxGeometry x="440" y="160" width="120" height="60" as="geometry" />
        </mxCell>
        
        <!-- Соединения -->
        <mxCell id="conn1" value="HTTP/HTTPS" style="endArrow=classic;html=1;rounded=0;exitX=1;exitY=0.5;entryX=0;entryY=0.5;" edge="1" parent="1" source="user" target="api">
          <mxGeometry relative="1" as="geometry" />
        </mxCell>
        
        <mxCell id="conn2" value="MongoDB Protocol" style="endArrow=classic;html=1;rounded=0;exitX=1;exitY=0.5;entryX=0;entryY=0.5;" edge="1" parent="1" source="api" target="mongos">
          <mxGeometry relative="1" as="geometry" />
        </mxCell>
        
        <mxCell id="conn3" value="MongoDB Protocol" style="endArrow=classic;html=1;rounded=0;exitX=1;exitY=0.5;entryX=0;entryY=0.5;" edge="1" parent="1" source="mongos" target="configsvr">
          <mxGeometry relative="1" as="geometry" />
        </mxCell>
        
        <mxCell id="conn4" value="MongoDB Protocol" style="endArrow=classic;html=1;rounded=0;exitX=0.5;exitY=1;entryX=0;entryY=0.5;" edge="1" parent="1" source="mongos" target="shard1">
          <mxGeometry relative="1" as="geometry" />
        </mxCell>
        
        <mxCell id="conn5" value="MongoDB Protocol" style="endArrow=classic;html=1;rounded=0;exitX=0.5;exitY=1;entryX=0;entryY=0.5;" edge="1" parent="1" source="mongos" target="shard2">
          <mxGeometry relative="1" as="geometry" />
        </mxCell>
        
        <!-- Заголовок -->
        <mxCell id="title" value="Архитектура MongoDB с шардированием" style="text;html=1;strokeColor=none;fillColor=none;align=center;verticalAlign=middle;whiteSpace=wrap;rounded=0;fontSize=16;fontStyle=1" vertex="1" parent="1">
          <mxGeometry x="40" y="10" width="720" height="20" as="geometry" />
        </mxCell>
      </root>
    </mxGraphModel>
  </diagram>
</mxfile> 